# xmcd
#
# Track frame offsets: 
#        150
#        16514
#        31236
#        42012
#        54011
#        64157
#        76149
#        87358
#        100790
#        116283
#        128981
#        144766
#        159536
#        169710
#        187758
#        201681
#        212730
#        226029
#        239236
#        248611
#        267989
#        281376
#        297403
#        311020
#        322477
#
# Disc length: 4475 seconds
#
# Revision: 0
# Processed by: cddbd v1.5.2PL0 Copyright (c) Steve Scherf et al.
# Submitted via: ExactAudioCopy v1.1
#
DISCID=55117919
DTITLE=The Statler Brothers - The Definitive Collection - MCA Years
DYEAR=2012
DGENRE=Country
TTITLE0=We Got Paid By Cash
TTITLE1=Don't Wait On Me
TTITLE2=Years Ago
TTITLE3=You'll Be Back (Every Night In My Dreams)
TTITLE4=Whatever
TTITLE5=Child Of The Fifties
TTITLE6=Oh Baby Mine (I Get So Lonely)
TTITLE7=Guilty
TTITLE8=Elizabeth
TTITLE9=Atlanta Blue
TTITLE10=One Takes The Blame
TTITLE11=My Only Love
TTITLE12=Hello Mary Lou
TTITLE13=Too Much On My Heart
TTITLE14=Sweeter And Sweeter
TTITLE15=Count On Me
TTITLE16=Only You
TTITLE17=Forever
TTITLE18=I'll Be The One
TTITLE19=Maple Street Mem'ries
TTITLE20=The Best I Know How
TTITLE21=Am I Crazy?
TTITLE22=Let's Get Started If We're Gonna Break My Heart
TTITLE23=Moon Pretty Moon
TTITLE24=More Than A Name On A Wall
EXTD=
EXTT0=
EXTT1=
EXTT2=
EXTT3=
EXTT4=
EXTT5=
EXTT6=
EXTT7=
EXTT8=
EXTT9=
EXTT10=
EXTT11=
EXTT12=
EXTT13=
EXTT14=
EXTT15=
EXTT16=
EXTT17=
EXTT18=
EXTT19=
EXTT20=
EXTT21=
EXTT22=
EXTT23=
EXTT24=
PLAYORDER=
